<svg width="125" height="25" viewBox="0 0 125 25" fill="none" xmlns="http://www.w3.org/2000/svg">
<path d="M1.755 24V5.1H5.481V24H1.755ZM19.9146 16.629V5.1H23.6406V24H20.8056L12.7056 12.444V24H8.97961V5.1H11.8146L19.9146 16.629ZM25.7426 5.1H39.6476V8.664H34.5446V24H30.8186V8.664H25.7426V5.1ZM45.4537 16.197V20.436H53.4187V24H41.7277V5.1H53.2837V8.664H45.4537V12.687H52.6087V16.197H45.4537ZM70.436 24H66.413L62.606 17.439H59.771V24H56.045V5.1H63.605C65.351 5.1 66.836 5.712 68.06 6.936C69.284 8.16 69.896 9.636 69.896 11.364C69.896 12.534 69.563 13.623 68.897 14.631C68.231 15.621 67.349 16.368 66.251 16.872L70.436 24ZM63.605 8.583H59.771V14.172H63.605C64.307 14.172 64.91 13.902 65.414 13.362C65.918 12.804 66.17 12.138 66.17 11.364C66.17 10.59 65.918 9.933 65.414 9.393C64.91 8.853 64.307 8.583 63.605 8.583ZM83.565 16.629V5.1H87.291V24H84.456L76.356 12.444V24H72.63V5.1H75.465L83.565 16.629ZM96.96 24.378C95.106 24.378 93.54 23.964 92.262 23.136C90.984 22.308 90.075 21.165 89.535 19.707L92.721 17.844C93.459 19.77 94.908 20.733 97.068 20.733C98.076 20.733 98.832 20.553 99.336 20.193C99.84 19.833 100.092 19.347 100.092 18.735C100.092 18.069 99.795 17.556 99.201 17.196C98.607 16.818 97.545 16.413 96.015 15.981C94.359 15.477 93.054 14.892 92.1 14.226C90.912 13.344 90.318 12.048 90.318 10.338C90.318 8.61 90.921 7.251 92.127 6.261C93.333 5.235 94.8 4.722 96.528 4.722C98.04 4.722 99.381 5.091 100.551 5.829C101.721 6.567 102.63 7.611 103.278 8.961L100.146 10.77C99.39 9.15 98.184 8.34 96.528 8.34C95.772 8.34 95.169 8.52 94.719 8.88C94.269 9.222 94.044 9.672 94.044 10.23C94.044 10.824 94.287 11.31 94.773 11.688C95.313 12.066 96.267 12.462 97.635 12.876L98.931 13.308C99.165 13.38 99.57 13.533 100.146 13.767C100.686 13.965 101.082 14.154 101.334 14.334C102.216 14.874 102.81 15.432 103.116 16.008C103.584 16.764 103.818 17.655 103.818 18.681C103.818 20.427 103.179 21.813 101.901 22.839C100.623 23.865 98.976 24.378 96.96 24.378Z" fill="white"/>
<path d="M115 5L117.245 11.9098H124.511L118.633 16.1803L120.878 23.0902L115 18.8197L109.122 23.0902L111.367 16.1803L105.489 11.9098H112.755L115 5Z" fill="#FFD700"/>
</svg>
